<?xml version="1.0" encoding="UTF-8"?>
<svg width="144px" height="142px" viewBox="0 0 144 142" version="1.1" xmlns="http://www.w3.org/2000/svg" xmlns:xlink="http://www.w3.org/1999/xlink">
  <title>Fairtrade Logotype (compact)</title>
  <desc>Fairtrade compact Logotype.</desc>
    <g id="FBM_IT2_VERT_CMYK_POS" stroke="none" stroke-width="1" fill="none" fill-rule="evenodd">
        <rect fill="#FFFFFF" opacity="0" x="0" y="0" width="144" height="142"></rect>
        <path d="M136.006054,6.97773854 C132.13219,6.97773854 128.981837,10.1289021 128.981837,13.9994955 C128.981837,17.8710979 132.13219,21.0222615 136.006054,21.0222615 C139.875883,21.0222615 143.024218,17.8710979 143.024218,13.9994955 C143.024218,10.1289021 139.875883,6.97773854 136.006054,6.97773854 Z M136.006054,22 C131.589304,22 128,18.4109226 128,13.9994955 C128,9.58806836 131.589304,6 136.006054,6 C140.415742,6 144,9.58806836 144,13.9994955 C144,18.4109226 140.415742,22 136.006054,22 L136.006054,22 Z" id="Fill-7" fill="#020000"></path>
        <g id="Group-11" fill="#020000">
            <path d="M136.774,12.757 C137.771,12.757 138.254,12.411 138.254,11.505 C138.254,11.02 138.039,10.305 136.914,10.305 L134.528,10.305 L134.528,12.757 L136.774,12.757 Z M132.655,8.723 L137.284,8.723 C139.724,8.723 140.17,10.522 140.17,11.312 C140.17,12.322 139.658,13.189 138.75,13.496 C139.504,13.829 139.913,14.11 139.913,15.818 C139.913,17.158 139.913,17.487 140.321,17.644 L140.321,17.886 L138.205,17.886 C138.075,17.451 138,16.979 138,16.036 C138,14.785 137.923,14.3 136.506,14.3 L134.528,14.3 L134.528,17.886 L132.655,17.886 L132.655,8.723 L132.655,8.723 Z" id="Fill-8"></path>
            <path d="M142.479,70.917 C142.479,31.789 110.754,0.059 71.62,0.059 C32.485,0.059 0.761,31.789 0.761,70.917 C0.761,110.056 32.485,141.77 71.62,141.77 C110.754,141.77 142.479,110.056 142.479,70.917 Z" id="Fill-10"></path>
        </g>
        <path d="M81.1558996,66.3118114 C71.7835595,66.3118114 64.1954263,58.7619312 64.1954263,49.4497816 C64.1954263,40.129667 71.7835595,32.5767999 81.1558996,32.5767999 C90.5082262,32.5767999 98.1023634,40.129667 98.1023634,49.4497816 C98.1023634,58.7619312 90.5082262,66.3118114 81.1558996,66.3118114 Z M120.747682,112.996017 L120.742679,113 C130.256114,101.83 136,87.0070258 136,71.2113183 C136,63.2751327 134.550019,55.6784577 131.906231,48.6692058 C123.185331,24.7859766 99.2751567,7 72.2678871,7 C71.7905642,7 70.5147011,7.0338515 70.5147011,7.0338515 C65.4903023,7.2090828 60.4528946,8.0981825 56.3331077,9.35367492 C54.4058039,9.94010238 47.5531683,12.2828253 42.5297701,17.3784718 C37.246196,22.8126333 34,30.2022167 34,38.3564458 C34,51.6580942 43.2132325,62.6349411 55.6256291,67.6569107 C60.9592371,69.74973 66.7831769,71.0589865 71.0620714,72.100418 C78.500103,73.8995257 94.1516908,76.4991218 107.186509,85.064547 L107.685846,85.3891232 C115.832357,90.9178697 120.747682,99.0501949 120.747682,112.233363 L120.747682,112.996017 Z" id="Fill-12" fill="#00B0D1"></path>
        <path d="M7,71.2808062 C7,54.2018083 13.7567425,38.5154455 24.6548429,27 C23.2664165,30.5809192 21.2929174,37.1018459 21.2929174,44.646035 C21.2929174,53.244434 23.8305582,63.366246 32.612629,72.6345074 L34.220333,74.3376154 C46.7440783,87.5521756 58,99.4100396 58,115.209211 C58,120.606046 56.6733701,126.473083 53.6393644,133 C26.7628987,125.354982 7,100.60501 7,71.2808062" id="Fill-13" fill="#BDD348"></path>
    </g>
</svg>
